<svg width="20" height="19" viewBox="0 0 20 19" fill="none" xmlns="http://www.w3.org/2000/svg">
<path fill-rule="evenodd" clip-rule="evenodd" d="M2.18791 12.4277C2.57322 12.4277 2.88558 12.7401 2.88558 13.1254C2.88558 14.205 3.91101 15.1626 5.51815 15.1626C7.11292 15.1626 8.14141 14.1982 8.14141 13.1254C8.14141 12.7401 8.45377 12.4277 8.83908 12.4277C9.2244 12.4277 9.53676 12.7401 9.53676 13.1254V15.0138C9.53676 17.0869 7.64194 18.6045 5.51815 18.6045C3.39705 18.6045 1.49023 17.0892 1.49023 15.0138V13.1254C1.49023 12.7401 1.80259 12.4277 2.18791 12.4277ZM3.12144 15.912C3.52175 16.6482 4.40066 17.2091 5.51815 17.2091C6.63629 17.2091 7.51266 16.6469 7.90961 15.9079C7.2216 16.3283 6.38047 16.558 5.51815 16.558C4.65362 16.558 3.81079 16.3305 3.12144 15.912Z" fill="#FAFAFA"/>
<path fill-rule="evenodd" clip-rule="evenodd" d="M5.49706 8.38168C4.73577 8.38168 4.07395 8.64258 3.6036 9.05504L3.60303 9.05554C3.13789 9.46254 2.87386 9.99543 2.87386 10.5677C2.87386 10.8974 2.9649 11.201 3.12596 11.4706C3.52359 12.1146 4.39597 12.6049 5.50638 12.6049C6.62126 12.6049 7.4903 12.1208 7.88596 11.472C8.04757 11.202 8.13895 10.8979 8.13895 10.5677C8.13895 9.99373 7.87401 9.45818 7.40394 9.06645L7.39514 9.05912L7.3952 9.05905C6.91913 8.6489 6.25344 8.38168 5.49706 8.38168ZM2.68362 8.00593C3.42257 7.35793 4.4165 6.98633 5.49706 6.98633C6.58042 6.98633 7.56883 7.36871 8.30164 7.99821C9.05691 8.62961 9.53429 9.54366 9.53429 10.5677C9.53429 11.167 9.36561 11.718 9.08138 12.1917L9.07921 12.1954L9.0792 12.1954C8.37668 13.3503 6.99511 14.0003 5.50638 14.0003C4.01395 14.0003 2.63618 13.3386 1.93523 12.1981L1.93134 12.1918L1.93137 12.1917C1.64711 11.718 1.47852 11.1669 1.47852 10.5677C1.47852 9.53997 1.95863 8.6403 2.68419 8.00543L3.14361 8.53049L2.68362 8.00593Z" fill="#FAFAFA"/>
<path fill-rule="evenodd" clip-rule="evenodd" d="M5.51815 8.37191C3.96618 8.37191 2.88558 9.44152 2.88558 10.5672V13.1254C2.88558 14.196 3.92065 15.1626 5.51815 15.1626C7.11462 15.1626 8.14141 14.2061 8.14141 13.1254V10.5672C8.14141 9.99326 7.87601 9.45247 7.41427 9.04755C6.93834 8.63838 6.27346 8.37191 5.51815 8.37191ZM1.49023 10.5672C1.49023 8.49297 3.38641 6.97656 5.51815 6.97656C6.60363 6.97656 7.5938 7.36045 8.32704 7.99216L8.3311 7.99565L8.33109 7.99567C9.05879 8.63241 9.53676 9.54206 9.53676 10.5672V13.1254C9.53676 15.2446 7.58679 16.5579 5.51815 16.5579C3.45054 16.5579 1.49023 15.2362 1.49023 13.1254V10.5672Z" fill="#FAFAFA"/>
<path fill-rule="evenodd" clip-rule="evenodd" d="M16.4369 7.39535C16.1028 7.39535 15.8091 7.52485 15.5972 7.7425L15.5847 7.75503C15.3372 7.99662 15.1989 8.3406 15.2337 8.70593L15.2345 8.71413L15.2345 8.71413C15.2837 9.30482 15.8516 9.81393 16.5485 9.81393H18.3557C18.5061 9.80423 18.6043 9.68664 18.6043 9.5628V7.64647C18.6043 7.52263 18.5061 7.40505 18.3557 7.39535H16.4369ZM14.6036 6.76274C15.0796 6.27734 15.7321 6 16.4369 6H18.3717C18.3801 6 18.3884 6.00015 18.3967 6.00044C19.2831 6.03211 19.9997 6.74947 19.9997 7.64647V9.5628C19.9997 10.4598 19.2831 11.1772 18.3967 11.2088C18.3884 11.2091 18.3801 11.2093 18.3717 11.2093H16.5485C15.2373 11.2093 13.9646 10.2505 13.8443 8.83412C13.7692 8.03209 14.0745 7.28283 14.6036 6.76274Z" fill="#FAFAFA"/>
<path fill-rule="evenodd" clip-rule="evenodd" d="M5.34883 1.39535C5.12162 1.39535 4.90602 1.41157 4.70143 1.44305L4.68221 1.44573C3.65215 1.57499 2.8424 2.01601 2.28795 2.66652C1.73206 3.3187 1.39535 4.22592 1.39535 5.34883V7.20929C1.39535 7.59461 1.08299 7.90697 0.697673 7.90697C0.312359 7.90697 0 7.59461 0 7.20929V5.34883C0 3.94152 0.426074 2.69989 1.226 1.76138C2.02546 0.823431 3.16104 0.232466 4.49891 0.0624493C4.775 0.0205003 5.05849 0 5.34883 0H13.7209C13.9718 0 14.2425 0.00907253 14.5158 0.0531248C15.8651 0.213715 17.0135 0.800839 17.8235 1.73953C18.6356 2.68058 19.0697 3.93051 19.0697 5.34883V6.69768C19.0697 7.08299 18.7574 7.39535 18.3721 7.39535H16.4372C16.1032 7.39535 15.8094 7.52485 15.5975 7.7425L15.585 7.75503C15.3375 7.99662 15.1993 8.3406 15.234 8.70593L15.2348 8.71413L15.2348 8.71414C15.284 9.30483 15.852 9.81393 16.5488 9.81393H18.3721C18.7574 9.81393 19.0697 10.1263 19.0697 10.5116V11.8604C19.0697 13.4143 18.5487 14.7635 17.5863 15.7259C16.6239 16.6883 15.2748 17.2093 13.7209 17.2093H11.3953C11.01 17.2093 10.6977 16.8969 10.6977 16.5116C10.6977 16.1263 11.01 15.8139 11.3953 15.8139H13.7209C14.9577 15.8139 15.9342 15.4047 16.5997 14.7392C17.2652 14.0737 17.6744 13.0973 17.6744 11.8604V11.2093H16.5488C15.2376 11.2093 13.9649 10.2505 13.8446 8.83412C13.7695 8.03208 14.0748 7.28282 14.604 6.76274C15.0799 6.27734 15.7324 6 16.4372 6H17.6744V5.34883C17.6744 4.21832 17.3318 3.30545 16.7671 2.65115C16.2038 1.99834 15.3815 1.55851 14.338 1.43718C14.3266 1.43585 14.3152 1.43424 14.3039 1.43235C14.1365 1.40446 13.9484 1.39535 13.7209 1.39535H5.34883Z" fill="#FAFAFA"/>
</svg>
