<svg width="24" height="23" viewBox="0 0 24 23" fill="none" xmlns="http://www.w3.org/2000/svg">
<g clip-path="url(#clip0_1151_2105)">
<path d="M23.4437 0.376953L13.1455 7.99686L15.0605 3.50623L23.4437 0.376953Z" fill="#E17726"/>
<path d="M0.580359 0.386719L8.94108 3.50756L10.7595 8.05706L0.580359 0.386719ZM19.2993 16.5832L23.851 16.6698L22.2602 22.0737L16.7062 20.5446L19.2993 16.5832ZM4.70048 16.5832L7.28395 20.5446L1.7393 22.0738L0.158203 16.6698L4.70048 16.5832Z" fill="#E27625"/>
<path d="M10.5124 6.89711L10.6984 12.9049L5.13232 12.6517L6.71557 10.2631L6.73564 10.2401L10.5124 6.89711ZM13.4301 6.83008L17.2645 10.2403L17.2844 10.2632L18.8676 12.6518L13.3028 12.9049L13.4301 6.83008ZM7.44711 16.5995L10.4863 18.9675L6.95586 20.672L7.44711 16.5995ZM16.5536 16.5991L17.0346 20.6721L13.514 18.9673L16.5536 16.5991Z" fill="#E27625"/>
<path d="M13.5916 18.7441L17.1641 20.474L13.841 22.0533L13.8755 21.0095L13.5916 18.7441ZM10.4072 18.7449L10.1345 20.9925L10.1569 22.0521L6.82593 20.474L10.4072 18.7449Z" fill="#D5BFB2"/>
<path d="M9.3757 13.6895L10.3093 15.6515L7.13086 14.7203L9.3757 13.6895ZM14.6243 13.6896L16.8797 14.7203L13.6909 15.6512L14.6243 13.6896Z" fill="#233447"/>
<path d="M7.68983 16.5806L7.17608 20.8031L4.42236 16.6729L7.68983 16.5806ZM16.3101 16.5807L19.5777 16.6729L16.8137 20.8033L16.3101 16.5807ZM18.9479 12.4141L16.5699 14.8376L14.7365 13.9998L13.8587 15.8451L13.2832 12.6718L18.9479 12.4141ZM5.05068 12.4141L10.7165 12.6718L10.1409 15.8451L9.26296 14L7.43924 14.8377L5.05068 12.4141Z" fill="#CC6228"/>
<path d="M4.89062 11.915L7.58106 14.6451L7.67425 17.3403L4.89062 11.915ZM19.1122 11.9102L16.3235 17.3451L16.4285 14.6451L19.1122 11.9102ZM10.5851 12.0813L10.6934 12.7629L10.9609 14.4608L10.7889 19.6757L9.97563 15.4864L9.97534 15.4431L10.5851 12.0813ZM13.4136 12.0719L14.025 15.4431L14.0247 15.4864L13.2093 19.6862L13.1771 18.6357L13.0499 14.4299L13.4136 12.0719Z" fill="#E27525"/>
<path d="M16.6677 14.5371L16.5767 16.8788L13.7385 19.0901L13.1647 18.6847L13.8078 15.372L16.6677 14.5371ZM7.34229 14.5371L10.1922 15.372L10.8353 18.6847L10.2616 19.0901L7.42329 16.8786L7.34229 14.5371Z" fill="#F5841F"/>
<path d="M6.28296 19.957L9.91408 21.6775L9.89871 20.9428L10.2026 20.6761H13.7964L14.1112 20.9419L14.0879 21.676L17.6961 19.9613L15.9403 21.4122L13.8174 22.8703H10.1734L8.05183 21.4062L6.28296 19.957Z" fill="#C0AC9D"/>
<path d="M13.3317 18.5156L13.8451 18.8783L14.1459 21.2787L13.7105 20.9111H10.2909L9.86377 21.2861L10.1548 18.8785L10.6683 18.5156H13.3317Z" fill="#161616"/>
<path d="M22.7638 0.587891L24 4.29636L23.228 8.04608L23.7777 8.47011L23.0338 9.03767L23.5929 9.46948L22.8526 10.1436L23.3071 10.4728L22.1009 11.8815L17.1537 10.441L17.1109 10.418L13.5458 7.41073L22.7638 0.587891ZM1.23619 0.587891L10.4543 7.41073L6.88912 10.418L6.84628 10.441L1.89909 11.8815L0.692906 10.4728L1.14703 10.1439L0.407156 9.46948L0.965156 9.03814L0.210094 8.46898L0.780563 8.04467L0 4.29655L1.23619 0.587891Z" fill="#763E1A"/>
<path d="M16.9117 10.1253L22.1535 11.6514L23.8565 16.9001H19.3636L16.268 16.9391L18.5193 12.5509L16.9117 10.1253ZM7.08818 10.1253L5.48027 12.5509L7.73186 16.9391L4.63764 16.9001H0.152832L1.84624 11.6515L7.08818 10.1253ZM15.3172 3.48047L13.851 7.44037L13.5399 12.7897L13.4208 14.4665L13.4113 18.7497H10.5884L10.5792 14.4745L10.4598 12.7883L10.1486 7.44037L8.68258 3.48047H15.3172Z" fill="#F5841F"/>
</g>
<defs>
<clipPath id="clip0_1151_2105">
<rect width="24" height="22.5" fill="white" transform="translate(0 0.376953)"/>
</clipPath>
</defs>
</svg>
