<svg width="18" height="18" viewBox="0 0 18 18" fill="none" xmlns="http://www.w3.org/2000/svg">
<path d="M15.4399 12.9397C15.0627 12.94 14.6904 13.0255 14.351 13.1901C14.0116 13.3546 13.7138 13.5938 13.4799 13.8897L4.96991 9.63974C5.08993 9.21811 5.08993 8.77137 4.96991 8.34974L13.4699 4.09974C13.8341 4.56582 14.3517 4.88769 14.9307 5.00815C15.5098 5.12862 16.1128 5.03987 16.6327 4.75768C17.1525 4.47549 17.5554 4.01814 17.7698 3.46691C17.9843 2.91567 17.9963 2.30627 17.8038 1.74699C17.6114 1.18772 17.2268 0.714801 16.7186 0.412287C16.2103 0.109773 15.6113 -0.00274155 15.0279 0.0947396C14.4445 0.192221 13.9146 0.493383 13.5323 0.944704C13.15 1.39603 12.9401 1.96827 12.9399 2.55974C12.9383 2.77962 12.9686 2.99858 13.0299 3.20974L4.52991 7.45974C4.20934 7.04979 3.76883 6.7501 3.26981 6.60246C2.77079 6.45482 2.23813 6.46659 1.74612 6.63612C1.2541 6.80565 0.827257 7.1245 0.525102 7.5482C0.222947 7.9719 0.0605469 8.47934 0.0605469 8.99974C0.0605469 9.52015 0.222947 10.0276 0.525102 10.4513C0.827257 10.875 1.2541 11.1938 1.74612 11.3634C2.23813 11.5329 2.77079 11.5447 3.26981 11.397C3.76883 11.2494 4.20934 10.9497 4.52991 10.5397L13.0299 14.7897C12.9686 15.0009 12.9383 15.2199 12.9399 15.4397C12.9399 15.9342 13.0865 16.4175 13.3612 16.8287C13.6359 17.2398 14.0264 17.5602 14.4832 17.7494C14.94 17.9387 15.4427 17.9882 15.9276 17.8917C16.4126 17.7952 16.858 17.5571 17.2077 17.2075C17.5573 16.8579 17.7954 16.4124 17.8919 15.9275C17.9883 15.4425 17.9388 14.9398 17.7496 14.483C17.5604 14.0262 17.24 13.6358 16.8288 13.3611C16.4177 13.0864 15.9344 12.9397 15.4399 12.9397ZM15.4399 1.05974C15.7366 1.05974 16.0266 1.14771 16.2733 1.31254C16.5199 1.47736 16.7122 1.71163 16.8257 1.98572C16.9393 2.2598 16.969 2.5614 16.9111 2.85238C16.8532 3.14335 16.7104 3.41062 16.5006 3.6204C16.2908 3.83018 16.0235 3.97304 15.7325 4.03092C15.4416 4.0888 15.14 4.05909 14.8659 3.94556C14.5918 3.83203 14.3575 3.63977 14.1927 3.3931C14.0279 3.14642 13.9399 2.85641 13.9399 2.55974C13.9399 2.16192 14.0979 1.78039 14.3793 1.49908C14.6606 1.21778 15.0421 1.05974 15.4399 1.05974ZM2.55991 10.4997C2.26324 10.4997 1.97323 10.4118 1.72656 10.2469C1.47988 10.0821 1.28762 9.84785 1.17409 9.57377C1.06056 9.29968 1.03086 8.99808 1.08873 8.7071C1.14661 8.41613 1.28947 8.14886 1.49925 7.93908C1.70903 7.7293 1.97631 7.58644 2.26728 7.52856C2.55825 7.47068 2.85985 7.50039 3.13394 7.61392C3.40803 7.72745 3.64229 7.91971 3.80712 8.16639C3.97194 8.41306 4.05991 8.70307 4.05991 8.99974C4.05991 9.39756 3.90188 9.7791 3.62057 10.0604C3.33927 10.3417 2.95774 10.4997 2.55991 10.4997ZM15.4399 16.9397C15.1432 16.9397 14.8532 16.8518 14.6066 16.6869C14.3599 16.5221 14.1676 16.2879 14.0541 16.0138C13.9406 15.7397 13.9109 15.4381 13.9687 15.1471C14.0266 14.8561 14.1695 14.5889 14.3793 14.3791C14.589 14.1693 14.8563 14.0264 15.1473 13.9686C15.4382 13.9107 15.7398 13.9404 16.0139 14.0539C16.288 14.1675 16.5223 14.3597 16.6871 14.6064C16.8519 14.8531 16.9399 15.1431 16.9399 15.4397C16.9399 15.8376 16.7819 16.2191 16.5006 16.5004C16.2193 16.7817 15.8377 16.9397 15.4399 16.9397Z" fill="#FAFAFA"/>
</svg>
